<svg version="1.1" viewBox="0.0 0.0 475.70603674540683 469.7742782152231" fill="none" stroke="none" stroke-linecap="square" stroke-miterlimit="10" xmlns:xlink="http://www.w3.org/1999/xlink" xmlns="http://www.w3.org/2000/svg"><clipPath id="p.0"><path d="m0 0l475.70602 0l0 469.7743l-475.70602 0l0 -469.7743z" clip-rule="nonzero"/></clipPath><g clip-path="url(#p.0)"><path fill="#000000" fill-opacity="0.0" d="m0 0l475.70602 0l0 469.7743l-475.70602 0z" fill-rule="evenodd"/><path fill="#0c1ebf" fill-opacity="0.4423" d="m5.5328083 235.45932l0 0c0 -126.190544 102.297646 -228.48819 228.48819 -228.48819l0 0c60.598846 0 118.7157 24.072794 161.56555 66.92264c42.849854 42.849846 66.92264 100.96672 66.92264 161.56555l0 0c0 126.19055 -102.29764 228.48819 -228.48819 228.48819l0 0c-126.190544 0 -228.48819 -102.29764 -228.48819 -228.48819z" fill-rule="evenodd"/><path stroke="#000000" stroke-width="3.0" stroke-linejoin="round" stroke-linecap="butt" d="m5.5328083 235.45932l0 0c0 -126.190544 102.297646 -228.48819 228.48819 -228.48819l0 0c60.598846 0 118.7157 24.072794 161.56555 66.92264c42.849854 42.849846 66.92264 100.96672 66.92264 161.56555l0 0c0 126.19055 -102.29764 228.48819 -228.48819 228.48819l0 0c-126.190544 0 -228.48819 -102.29764 -228.48819 -228.48819z" fill-rule="evenodd"/><path fill="#f34b4b" fill-opacity="0.5192" d="m30.874016 303.5013l0 0c0 -69.24867 56.137146 -125.38583 125.385826 -125.38583l0 0c33.254395 0 65.14676 13.210266 88.66116 36.72467c23.51442 23.514404 36.724655 55.40677 36.724655 88.66116l0 0c0 69.24869 -56.13713 125.38583 -125.38582 125.38583l0 0c-69.24868 0 -125.385826 -56.137146 -125.385826 -125.38583z" fill-rule="evenodd"/><path stroke="#000000" stroke-width="3.0" stroke-linejoin="round" stroke-linecap="butt" d="m30.874016 303.5013l0 0c0 -69.24867 56.137146 -125.38583 125.385826 -125.38583l0 0c33.254395 0 65.14676 13.210266 88.66116 36.72467c23.51442 23.514404 36.724655 55.40677 36.724655 88.66116l0 0c0 69.24869 -56.13713 125.38583 -125.38582 125.38583l0 0c-69.24868 0 -125.385826 -56.137146 -125.385826 -125.38583z" fill-rule="evenodd"/><path fill="#24a01f" fill-opacity="0.3577" d="m148.69292 303.5013l0 0c0 -50.427505 40.879578 -91.30708 91.30708 -91.30708l0 0c24.216156 0 47.44046 9.619827 64.56387 26.743225c17.123383 17.123398 26.743225 40.347702 26.743225 64.56386l0 0c0 50.42752 -40.879578 91.3071 -91.3071 91.3071l0 0c-50.427505 0 -91.30708 -40.879578 -91.30708 -91.3071z" fill-rule="evenodd"/><path stroke="#000000" stroke-width="3.0" stroke-linejoin="round" stroke-linecap="butt" d="m148.69292 303.5013l0 0c0 -50.427505 40.879578 -91.30708 91.30708 -91.30708l0 0c24.216156 0 47.44046 9.619827 64.56387 26.743225c17.123383 17.123398 26.743225 40.347702 26.743225 64.56386l0 0c0 50.42752 -40.879578 91.3071 -91.3071 91.3071l0 0c-50.427505 0 -91.30708 -40.879578 -91.30708 -91.3071z" fill-rule="evenodd"/><path fill="#f6ff2c" fill-opacity="0.4269" d="m169.14174 340.60104l0 0c0 -24.84845 20.143661 -44.992126 44.992126 -44.992126l0 0c11.932648 0 23.376572 4.7402344 31.814224 13.177887c8.437668 8.437683 13.177887 19.881592 13.177887 31.81424l0 0c0 24.84848 -20.143646 44.992126 -44.99211 44.992126l0 0c-24.848465 0 -44.992126 -20.143646 -44.992126 -44.992126z" fill-rule="evenodd"/><path stroke="#000000" stroke-width="3.0" stroke-linejoin="round" stroke-linecap="butt" d="m169.14174 340.60104l0 0c0 -24.84845 20.143661 -44.992126 44.992126 -44.992126l0 0c11.932648 0 23.376572 4.7402344 31.814224 13.177887c8.437668 8.437683 13.177887 19.881592 13.177887 31.81424l0 0c0 24.84848 -20.143646 44.992126 -44.99211 44.992126l0 0c-24.848465 0 -44.992126 -20.143646 -44.992126 -44.992126z" fill-rule="evenodd"/><path fill="#000000" fill-opacity="0.0" d="m106.89239 78.50394l254.2677 0l0 69.88977l-254.2677 0z" fill-rule="evenodd"/><path fill="#ffffff" d="m212.36266 109.323814l-3.5625 0l-0.609375 -3.25q-0.625 -0.390625 -1.8125 -0.6875q-1.1875 -0.296875 -2.515625 -0.296875q-1.953125 0 -3.03125 0.828125q-1.0625 0.8125 -1.0625 2.125q0 1.203125 1.109375 1.984375q1.125 0.765625 3.859375 1.625q3.921875 1.09375 5.9375 2.890625q2.03125 1.78125 2.03125 4.6875q0 3.046875 -2.40625 4.8125q-2.40625 1.75 -6.34375 1.75q-2.8125 0 -5.09375 -0.890625q-2.265625 -0.90625 -3.78125 -2.484375l0 -4.9375l3.6875 0l0.5 3.359375q0.71875 0.59375 1.9375 0.984375q1.234375 0.375 2.75 0.375q1.953125 0 2.96875 -0.796875q1.015625 -0.796875 1.015625 -2.140625q0 -1.359375 -0.96875 -2.1875q-0.96875 -0.828125 -3.390625 -1.5625q-4.21875 -1.21875 -6.390625 -2.890625q-2.15625 -1.6875 -2.15625 -4.59375q0 -2.890625 2.4375 -4.71875q2.4375 -1.828125 6.140625 -1.875q2.734375 0 4.96875 0.828125q2.25 0.828125 3.78125 2.21875l0 4.84375zm9.35231 -5.796875l0 4.3125l3.078125 0l0 3.34375l-3.078125 0l0 8.953125q0 1.03125 0.421875 1.46875q0.421875 0.4375 1.125 0.4375q0.5 0 0.859375 -0.03125q0.375 -0.046875 0.828125 -0.140625l0.40625 3.4375q-0.796875 0.234375 -1.578125 0.359375q-0.78125 0.125 -1.703125 0.125q-2.453125 0 -3.78125 -1.34375q-1.328125 -1.359375 -1.328125 -4.28125l0 -8.984375l-2.578125 0l0 -3.34375l2.578125 0l0 -4.3125l4.75 0zm16.620453 21.921875q-0.1875 -0.4375 -0.34375 -0.890625q-0.140625 -0.46875 -0.21875 -0.953125q-0.84375 0.984375 -2.0625 1.59375q-1.21875 0.59375 -2.78125 0.59375q-2.578125 0 -4.109375 -1.40625q-1.515625 -1.40625 -1.515625 -3.828125q0 -2.484375 1.984375 -3.828125q1.984375 -1.359375 5.828125 -1.359375l2.421875 0l0 -1.71875q0 -1.265625 -0.734375 -1.96875q-0.734375 -0.703125 -2.15625 -0.703125q-0.8125 0 -1.453125 0.1875q-0.640625 0.1875 -1.03125 0.453125l-0.296875 1.890625l-3.578125 0l0.015625 -3.90625q1.296875 -0.890625 2.984375 -1.484375q1.6875 -0.609375 3.671875 -0.609375q3.265625 0 5.296875 1.609375q2.046875 1.59375 2.046875 4.5625l0 7.28125q0 0.40625 0 0.765625q0.015625 0.34375 0.078125 0.671875l1.4375 0.203125l0 2.84375l-5.484375 0zm-4.109375 -3.171875q1.0625 0 1.9375 -0.453125q0.890625 -0.46875 1.375 -1.171875l0 -2.6875l-2.421875 0q-1.515625 0 -2.296875 0.71875q-0.78125 0.703125 -0.78125 1.6875q0 0.890625 0.578125 1.40625q0.578125 0.5 1.609375 0.5zm18.229584 -18.75l0 4.3125l3.078125 0l0 3.34375l-3.078125 0l0 8.953125q0 1.03125 0.421875 1.46875q0.421875 0.4375 1.125 0.4375q0.5 0 0.859375 -0.03125q0.375 -0.046875 0.828125 -0.140625l0.40625 3.4375q-0.796875 0.234375 -1.578125 0.359375q-0.78125 0.125 -1.703125 0.125q-2.453125 0 -3.78125 -1.34375q-1.328125 -1.359375 -1.328125 -4.28125l0 -8.984375l-2.578125 0l0 -3.34375l2.578125 0l0 -4.3125l4.75 0zm13.839203 22.265625q-3.8125 0 -6.09375 -2.4375q-2.265625 -2.453125 -2.265625 -6.203125l0 -0.65625q0 -3.921875 2.15625 -6.453125q2.15625 -2.546875 5.78125 -2.53125q3.5625 0 5.53125 2.15625q1.96875 2.140625 1.96875 5.8125l0 2.578125l-10.515625 0l-0.03125 0.09375q0.140625 1.75 1.171875 2.875q1.03125 1.125 2.796875 1.125q1.578125 0 2.625 -0.3125q1.046875 -0.328125 2.28125 -1.015625l1.28125 2.9375q-1.09375 0.859375 -2.828125 1.453125q-1.71875 0.578125 -3.859375 0.578125zm-0.421875 -14.609375q-1.3125 0 -2.078125 1.015625q-0.765625 1.0 -0.953125 2.640625l0.046875 0.078125l5.828125 0l0 -0.421875q0 -1.515625 -0.703125 -2.40625q-0.703125 -0.90625 -2.140625 -0.90625z" fill-rule="nonzero"/><path fill="#000000" fill-opacity="0.0" d="m-34.874016 256.0971l254.26773 0l0 69.88977l-254.26773 0z" fill-rule="evenodd"/><path fill="#ffffff" d="m80.91075 286.28012l-0.078125 -0.015625l-5.59375 15.4375l-2.8125 0l-5.546875 -15.375l-0.09375 0.015625l0.40625 9.140625l0 3.28125l2.234375 0.4375l0 2.5l-8.640625 0l0 -2.5l2.21875 -0.4375l0 -14.96875l-2.21875 -0.421875l0 -2.515625l2.21875 0l5.46875 0l5.3125 15.359375l0.078125 0l5.359375 -15.359375l7.703125 0l0 2.515625l-2.234375 0.421875l0 14.96875l2.234375 0.4375l0 2.5l-8.640625 0l0 -2.5l2.21875 -0.4375l0 -3.28125l0.40625 -9.203125zm18.45214 13.453125q-0.75 1.09375 -1.84375 1.6875q-1.09375 0.578125 -2.5 0.578125q-2.4531326 0 -3.8437576 -1.5625q-1.390625 -1.5625 -1.390625 -4.875l0 -6.40625l-1.703125 -0.421875l0 -2.53125l1.703125 0l4.1875076 0l0 9.390625q0 1.6875 0.5625 2.421875q0.5625 0.734375 1.6875 0.734375q0.984375 0 1.703125 -0.3125q0.734375 -0.328125 1.1875 -0.9375l0 -8.34375l-1.828125 -0.421875l0 -2.53125l1.828125 0l4.1875 0l0 12.5625l1.875 0.4375l0 2.5l-5.546875 0l-0.265625 -1.96875zm7.223297 -0.53125l2.0 -0.4375l0 -9.609375l-2.21875 -0.421875l0 -2.53125l6.125 0l0.1875 2.21875q0.765625 -1.1875 1.890625 -1.84375q1.140625 -0.65625 2.546875 -0.65625q2.34375 0 3.65625 1.484375q1.328125 1.46875 1.328125 4.609375l0 6.75l2.0 0.4375l0 2.5l-7.984375 0l0 -2.5l1.78125 -0.4375l0 -6.734375q0 -1.5625 -0.640625 -2.203125q-0.625 -0.65625 -1.890625 -0.65625q-0.828125 0 -1.5 0.34375q-0.65625 0.328125 -1.09375 0.953125l0 8.296875l1.6875 0.4375l0 2.5l-7.875 0l0 -2.5z" fill-rule="nonzero"/><path fill="#000000" fill-opacity="0.0" d="m117.509186 222.29134l254.26773 0l0 69.889755l-254.26773 0z" fill-rule="evenodd"/><path fill="#ffffff" d="m234.32663 258.5081l-6.421875 0l0 5.40625l6.125 0l0.15625 -2.265625l2.890625 0l0 5.1875l-14.984375 0l0 -2.28125l2.015625 -0.390625l0 -13.59375l-2.015625 -0.390625l0 -2.296875l2.015625 0l12.953125 0l0 5.203125l-2.921875 0l-0.171875 -2.265625l-6.0625 0l0 4.75l6.421875 0l0 2.9375zm9.524597 8.328125l-3.796875 0l0 -3.328125l3.796875 0l0 3.328125zm16.20047 -18.953125l0 1.90625l-9.28125 14.125l6.609375 0l0.3125 -2.28125l2.875 0l-0.28125 5.203125l-14.140625 0l0 -1.984375l9.234375 -14.03125l-6.03125 0l-0.296875 2.28125l-2.90625 0l0.296875 -5.21875l13.609375 0zm6.551056 18.953125l-3.796875 0l0 -3.328125l3.796875 0l0 3.328125z" fill-rule="nonzero"/><path fill="#000000" fill-opacity="0.0" d="m87.0 306.97375l254.26773 0l0 69.88977l-254.26773 0z" fill-rule="evenodd"/><path fill="#ffffff" d="m204.74713 342.95862l-5.78125 0l0 4.875l5.515625 0l0.15625 -2.046875l2.59375 0l0 4.671875l-13.5 0l0 -2.046875l1.8125 -0.359375l0 -12.25l-1.8125 -0.34375l0 -2.0625l1.8125 0l11.671875 0l0 4.671875l-2.625 0l-0.15625 -2.03125l-5.46875 0l0 4.28125l5.78125 0l0 2.640625zm8.578125 7.5l-3.40625 0l0 -3.0l3.40625 0l0 3.0zm14.8203125 -11.609375l-2.578125 0l-0.4375 -2.34375q-0.453125 -0.28125 -1.3125 -0.484375q-0.84375 -0.21875 -1.8125 -0.21875q-1.40625 0 -2.171875 0.59375q-0.765625 0.578125 -0.765625 1.515625q0 0.875 0.796875 1.4375q0.8125 0.546875 2.78125 1.171875q2.828125 0.78125 4.28125 2.078125q1.453125 1.28125 1.453125 3.375q0 2.203125 -1.734375 3.46875q-1.734375 1.265625 -4.5625 1.265625q-2.03125 0 -3.671875 -0.640625q-1.625 -0.65625 -2.71875 -1.796875l0 -3.5625l2.65625 0l0.359375 2.4375q0.515625 0.421875 1.390625 0.703125q0.890625 0.265625 1.984375 0.265625q1.40625 0 2.140625 -0.578125q0.734375 -0.578125 0.734375 -1.53125q0 -0.984375 -0.703125 -1.578125q-0.703125 -0.609375 -2.4375 -1.125q-3.046875 -0.890625 -4.609375 -2.09375q-1.546875 -1.203125 -1.546875 -3.296875q0 -2.078125 1.75 -3.390625q1.765625 -1.328125 4.421875 -1.359375q1.96875 0 3.578125 0.59375q1.625 0.59375 2.734375 1.59375l0 3.5zm5.8515625 11.609375l-3.40625 0l0 -3.0l3.40625 0l0 3.0z" fill-rule="nonzero"/></g></svg>